<?xml version="1.0" encoding="UTF-8" standalone="no"?>
<svg
   width="999.97589"
   height="1000"
   viewBox="0 0 749.98192 750"
   version="1.1"
   id="svg1031"
   xmlns="http://www.w3.org/2000/svg"
   xmlns:svg="http://www.w3.org/2000/svg">
  <defs
     id="defs1031" />
  <clipPath
     id="bc">
    <path
       transform="matrix(1,0,0,-1,0,792)"
       d="M 0,0 H 612 V 792 H 0 Z"
       id="path1025" />
  </clipPath>
  <clipPath
     id="bd">
    <path
       transform="matrix(1,0,0,-1,0,792)"
       d="M 0,0 H 612 V 792 H 0 Z"
       id="path1030" />
  </clipPath>
  <g
     id="g1032"
     transform="matrix(18.082747,0,0,18.082747,-2588.5995,-1096.0676)">
    <path
       d="m 184.628,95.892 a 6.198,6.198 0 0 1 -6.198,6.198 h -29.079 a 6.198,6.198 0 0 1 -6.198,-6.198 V 66.814 a 6.198,6.198 0 0 1 6.198,-6.2 h 29.08 a 6.198,6.198 0 0 1 6.197,6.2 z"
       fill="#32a5dd"
       id="path1026"
       style="fill:#00aaeb;fill-opacity:1" />
    <path
       d="m 164.002,93.765 -2.82,-9.03 -9.029,-2.82 9.028,-2.82 2.821,-9.03 2.82,9.03 9.03,2.82 -9.03,2.82 z m 4.002,-15.854 0.98,0.305 2.351,-3.633 -3.635,2.352 z m -8.005,0 0.305,-0.976 -3.634,-2.353 2.353,3.634 z m 8.005,8.006 -0.304,0.978 3.635,2.353 -2.352,-3.636 z m -8.005,0 -0.977,-0.305 -2.353,3.636 3.635,-2.35 z m 17.828,-4.002 c 0,7.634 -6.19,13.825 -13.825,13.825 -7.635,0 -13.824,-6.19 -13.824,-13.825 0,-7.635 6.19,-13.825 13.824,-13.825 7.634,0 13.825,6.19 13.825,13.825 m -1.975,0 c 0,-6.534 -5.315,-11.85 -11.85,-11.85 -6.534,0 -11.849,5.316 -11.849,11.85 0,6.535 5.315,11.85 11.85,11.85 6.534,0 11.85,-5.315 11.85,-11.85"
       fill="#ffffff"
       id="path1027" />
  </g>
</svg>
